<svg width="29" height="29" viewBox="0 0 29 29" fill="none" xmlns="http://www.w3.org/2000/svg">
<g clip-path="url(#clip0_70_7)">
<path d="M28.227 14.8225C28.227 13.8708 28.1499 12.914 27.9852 11.9777H14.78V17.3689H22.342C22.0282 19.1076 21.02 20.6457 19.5436 21.6231V25.1212H24.055C26.7043 22.6828 28.227 19.0819 28.227 14.8225Z" fill="#4285F4"/>
<path d="M14.78 28.5009C18.5558 28.5009 21.7401 27.2612 24.0602 25.1212L19.5487 21.6231C18.2935 22.4771 16.673 22.9606 14.7851 22.9606C11.1327 22.9606 8.0359 20.4965 6.92475 17.1837H2.26923V20.7898C4.64586 25.5173 9.48657 28.5009 14.78 28.5009Z" fill="#34A853"/>
<path d="M6.91963 17.1837C6.33319 15.4449 6.33319 13.5621 6.91963 11.8234V8.21729H2.26925C0.283581 12.1732 0.283581 16.8339 2.26925 20.7898L6.91963 17.1837Z" fill="#FBBC04"/>
<path d="M14.78 6.04127C16.7759 6.01041 18.705 6.76146 20.1505 8.14012L24.1476 4.14305C21.6166 1.76642 18.2575 0.45979 14.78 0.500943C9.48657 0.500943 4.64586 3.48459 2.26923 8.21728L6.9196 11.8234C8.02561 8.50536 11.1276 6.04127 14.78 6.04127Z" fill="#EA4335"/>
</g>
<defs>
<clipPath id="clip0_70_7">
<rect width="28" height="28" fill="white" transform="translate(0.5 0.5)"/>
</clipPath>
</defs>
</svg>
